<svg id="radio" xmlns="http://www.w3.org/2000/svg" width="174" height="188.00024" viewBox="0 0 174 188.00024">
  <defs>
    <style>
      .cls-1 {
        opacity: 0.24;
      }

      .cls-2 {
        fill: #51361c;
      }

      .cls-3 {
        fill: #77604d;
      }

      .cls-4 {
        fill: #eaeaea;
      }

      .cls-5 {
        fill: #4f4f4f;
      }

      .cls-6 {
        fill: #9e9e9e;
      }

      .cls-7 {
        fill: none;
      }

      .cls-8 {
        fill: #c14040;
      }

      .cls-9 {
        fill: #cca650;
      }

      .cls-10 {
        fill: #7a7a7a;
      }

      .cls-11 {
        fill: #eee;
      }

      .cls-12 {
        fill: #ccc;
      }

      .cls-13 {
        fill: #818181;
      }
    </style>
  </defs>
  <title>radio</title>
  <rect id="shadow" class="cls-1" y="165.00024" width="174" height="23" rx="11.49999"/>
  <g id="radio-body">
    <g id="cabinet">
      <g id="outer-cabinet">
        <rect class="cls-2" x="12" y="102.50024" width="150" height="81" rx="12.04255"/>
      </g>
      <g id="inner-cabinet">
        <rect class="cls-3" x="17" y="107.50024" width="140" height="71" rx="8.43617"/>
      </g>
    </g>
    <g id="drivers">
      <circle id="outer" class="cls-4" cx="46.53247" cy="143.03271" r="21"/>
      <g id="inner">
        <path class="cls-5" d="M71.186,137.4942l25.87746,9.7713A18.94,18.94,0,0,0,71.186,137.4942Z" transform="translate(-33 -11.509)"/>
        <path class="cls-5" d="M98.431,156.3332a18.89237,18.89237,0,0,0-.53706-6.61629l-28.95132-10.932a18.89233,18.89233,0,0,0-4.77611,4.61Z" transform="translate(-33 -11.509)"/>
        <path class="cls-5" d="M90.12234,170.29851a18.89229,18.89229,0,0,0,4.7761-4.61L60.634,152.75023a18.89237,18.89237,0,0,0,.53705,6.61629Z" transform="translate(-33 -11.509)"/>
        <path class="cls-5" d="M63.06,145.115a17.47313,17.47313,0,0,0-2.11953,5.61316L96.005,163.96847a17.47342,17.47342,0,0,0,2.11952-5.61316Z" transform="translate(-33 -11.509)"/>
        <path class="cls-5" d="M62.00146,161.81793a18.94,18.94,0,0,0,25.87741,9.77128Z" transform="translate(-33 -11.509)"/>
      </g>
    </g>
    <g id="channel-needle">
      <rect id="background" class="cls-4" x="77.5" y="118.00024" width="70" height="10" rx="1.0266"/>
      <path id="row-line" class="cls-6" d="M180.5,135.00924h-70a.5.5,0,0,1,0-1h70a.5.5,0,0,1,0,1Z" transform="translate(-33 -11.509)"/>
      <g id="column-lines">
        <path class="cls-6" d="M114,137.50924a.49971.49971,0,0,1-.5-.5v-5a.5.5,0,0,1,1,0v5A.49971.49971,0,0,1,114,137.50924Z" transform="translate(-33 -11.509)"/>
        <path class="cls-6" d="M117,137.50924a.49971.49971,0,0,1-.5-.5v-5a.5.5,0,0,1,1,0v5A.49971.49971,0,0,1,117,137.50924Z" transform="translate(-33 -11.509)"/>
        <path class="cls-6" d="M120,137.50924a.49971.49971,0,0,1-.5-.5v-5a.5.5,0,0,1,1,0v5A.49971.49971,0,0,1,120,137.50924Z" transform="translate(-33 -11.509)"/>
        <path class="cls-6" d="M123,137.50924a.49971.49971,0,0,1-.5-.5v-5a.5.5,0,0,1,1,0v5A.49971.49971,0,0,1,123,137.50924Z" transform="translate(-33 -11.509)"/>
        <path class="cls-6" d="M126,137.50924a.49971.49971,0,0,1-.5-.5v-5a.5.5,0,1,1,1,0v5A.49971.49971,0,0,1,126,137.50924Z" transform="translate(-33 -11.509)"/>
        <path class="cls-6" d="M129,137.50924a.49971.49971,0,0,1-.5-.5v-5a.5.5,0,1,1,1,0v5A.49971.49971,0,0,1,129,137.50924Z" transform="translate(-33 -11.509)"/>
        <path class="cls-6" d="M132,137.50924a.49971.49971,0,0,1-.5-.5v-5a.5.5,0,1,1,1,0v5A.49971.49971,0,0,1,132,137.50924Z" transform="translate(-33 -11.509)"/>
        <path class="cls-6" d="M135,137.50924a.49971.49971,0,0,1-.5-.5v-5a.5.5,0,1,1,1,0v5A.49971.49971,0,0,1,135,137.50924Z" transform="translate(-33 -11.509)"/>
        <path class="cls-6" d="M138,137.50924a.49971.49971,0,0,1-.5-.5v-5a.5.5,0,1,1,1,0v5A.49971.49971,0,0,1,138,137.50924Z" transform="translate(-33 -11.509)"/>
        <path class="cls-6" d="M141,137.50924a.49971.49971,0,0,1-.5-.5v-5a.5.5,0,1,1,1,0v5A.49971.49971,0,0,1,141,137.50924Z" transform="translate(-33 -11.509)"/>
        <path class="cls-6" d="M144,137.50924a.49971.49971,0,0,1-.5-.5v-5a.5.5,0,1,1,1,0v5A.49971.49971,0,0,1,144,137.50924Z" transform="translate(-33 -11.509)"/>
        <path class="cls-6" d="M147,137.50924a.49971.49971,0,0,1-.5-.5v-5a.5.5,0,1,1,1,0v5A.49971.49971,0,0,1,147,137.50924Z" transform="translate(-33 -11.509)"/>
        <path class="cls-6" d="M150,137.50924a.49971.49971,0,0,1-.5-.5v-5a.5.5,0,1,1,1,0v5A.49971.49971,0,0,1,150,137.50924Z" transform="translate(-33 -11.509)"/>
        <path class="cls-6" d="M153,137.50924a.49971.49971,0,0,1-.5-.5v-5a.5.5,0,1,1,1,0v5A.49971.49971,0,0,1,153,137.50924Z" transform="translate(-33 -11.509)"/>
        <path class="cls-6" d="M156,137.50924a.49971.49971,0,0,1-.5-.5v-5a.5.5,0,1,1,1,0v5A.49971.49971,0,0,1,156,137.50924Z" transform="translate(-33 -11.509)"/>
        <path class="cls-6" d="M159,137.50924a.49971.49971,0,0,1-.5-.5v-5a.5.5,0,1,1,1,0v5A.49971.49971,0,0,1,159,137.50924Z" transform="translate(-33 -11.509)"/>
        <path class="cls-6" d="M162,137.50924a.49971.49971,0,0,1-.5-.5v-5a.5.5,0,1,1,1,0v5A.49971.49971,0,0,1,162,137.50924Z" transform="translate(-33 -11.509)"/>
        <path class="cls-6" d="M165,137.50924a.49971.49971,0,0,1-.5-.5v-5a.5.5,0,1,1,1,0v5A.49971.49971,0,0,1,165,137.50924Z" transform="translate(-33 -11.509)"/>
        <path class="cls-6" d="M168,137.50924a.49971.49971,0,0,1-.5-.5v-5a.5.5,0,1,1,1,0v5A.49971.49971,0,0,1,168,137.50924Z" transform="translate(-33 -11.509)"/>
        <path class="cls-6" d="M171,137.50924a.49971.49971,0,0,1-.5-.5v-5a.5.5,0,1,1,1,0v5A.49971.49971,0,0,1,171,137.50924Z" transform="translate(-33 -11.509)"/>
        <path class="cls-6" d="M174,137.50924a.49971.49971,0,0,1-.5-.5v-5a.5.5,0,1,1,1,0v5A.49971.49971,0,0,1,174,137.50924Z" transform="translate(-33 -11.509)"/>
        <path class="cls-6" d="M177,137.50924a.49971.49971,0,0,1-.5-.5v-5a.5.5,0,1,1,1,0v5A.49971.49971,0,0,1,177,137.50924Z" transform="translate(-33 -11.509)"/>
      </g>
      <g id="red-line-container">
        <rect id="background-2" data-name="background" class="cls-7" x="77.5" y="118.00024" width="52" height="10" rx="1.0266"/>
        <path id="red-line" class="cls-8" d="M162,139.50924a.49971.49971,0,0,1-.5-.5v-9a.5.5,0,1,1,1,0v9A.49971.49971,0,0,1,162,139.50924Z" transform="translate(-33 -11.509)"/>
      </g>
    </g>
    <g id="channel">
      <rect id="channel-body" class="cls-9" x="77.5" y="142.00024" width="44" height="23" rx="4.96809"/>
      <g id="text">
        <path class="cls-5" d="M119.51172,168.062l1.85937-.20508a1.349,1.349,0,0,0,.35547.84082,1.05326,1.05326,0,0,0,.75879.27344,1.2391,1.2391,0,0,0,1.01172-.54688,4.64957,4.64957,0,0,0,.5332-2.26953,2.29383,2.29383,0,0,1-1.81152.84082,2.70275,2.70275,0,0,1-2.04-.91309,3.32313,3.32313,0,0,1-.8584-2.375,3.38169,3.38169,0,0,1,.90528-2.458,3.28008,3.28008,0,0,1,4.80957.24609,6.09888,6.09888,0,0,1,.97754,3.87988,6.17,6.17,0,0,1-1.01856,3.96485,3.29409,3.29409,0,0,1-2.65234,1.21679,2.81018,2.81018,0,0,1-1.90039-.625A3.02255,3.02255,0,0,1,119.51172,168.062Zm4.34766-4.19727a2.19615,2.19615,0,0,0-.42676-1.44238,1.26155,1.26155,0,0,0-.98828-.5127,1.10788,1.10788,0,0,0-.88477.41992,2.14475,2.14475,0,0,0-.35254,1.37793,2.19225,2.19225,0,0,0,.38281,1.42579,1.20064,1.20064,0,0,0,.957.4541,1.1848,1.1848,0,0,0,.93261-.4375A1.90532,1.90532,0,0,0,123.85938,163.86471Z" transform="translate(-33 -11.509)"/>
        <path class="cls-5" d="M128.9043,164.97213a2.14768,2.14768,0,0,1-1.42188-2.07129,2.42568,2.42568,0,0,1,.78321-1.85254,3.73977,3.73977,0,0,1,4.44335,0,2.42046,2.42046,0,0,1,.78907,1.85254,2.1839,2.1839,0,0,1-.36231,1.24024,2.286,2.286,0,0,1-1.01855.83105,2.68341,2.68341,0,0,1,1.26758.97754,2.58319,2.58319,0,0,1,.43457,1.4834,3.01889,3.01889,0,0,1-.88575,2.25586,3.21558,3.21558,0,0,1-2.35449.86816,3.56121,3.56121,0,0,1-2.27637-.71777,2.79985,2.79985,0,0,1-1.07324-2.32422,2.87611,2.87611,0,0,1,.40332-1.49316A2.59214,2.59214,0,0,1,128.9043,164.97213Zm.21875,2.3584a1.76756,1.76756,0,0,0,.40625,1.23731,1.32243,1.32243,0,0,0,1.01562.44433,1.27427,1.27427,0,0,0,.98438-.42773,1.76667,1.76667,0,0,0,.38965-1.2334,1.59667,1.59667,0,0,0-.39649-1.13184,1.31431,1.31431,0,0,0-1.00488-.42675,1.20033,1.20033,0,0,0-1.04883.48535A1.77785,1.77785,0,0,0,129.12305,167.33053Zm.17773-4.293a1.20493,1.20493,0,0,0,.32422.89551,1.17817,1.17817,0,0,0,.86523.32129,1.19238,1.19238,0,0,0,.875-.32422,1.20929,1.20929,0,0,0,.32813-.89941,1.1152,1.1152,0,0,0-1.18262-1.18946,1.19165,1.19165,0,0,0-.88183.32813A1.17307,1.17307,0,0,0,129.30078,163.03756Z" transform="translate(-33 -11.509)"/>
        <path class="cls-5" d="M135.45313,170.37936v-1.9209H137.374v1.9209Z" transform="translate(-33 -11.509)"/>
        <path class="cls-5" d="M138.93262,162.27877v-1.78418H145.502v1.39453a10.34689,10.34689,0,0,0-1.65429,2.29688,13.35262,13.35262,0,0,0-1.28125,3.18164,11.754,11.754,0,0,0-.43457,3.01172H140.2793a12.90842,12.90842,0,0,1,.85742-4.23828,14.14569,14.14569,0,0,1,2.16406-3.86231Z" transform="translate(-33 -11.509)"/>
      </g>
    </g>
    <g id="btn">
      <g id="btn-body">
        <circle class="cls-2" cx="141" cy="144.00024" r="6.5"/>
      </g>
      <path id="btn-control" class="cls-10" d="M174,149.00924a6.52106,6.52106,0,0,0-.86667.06438v5.13562a.86667.86667,0,1,0,1.73334,0v-5.13562A6.52106,6.52106,0,0,0,174,149.00924Z" transform="translate(-33 -11.509)"/>
    </g>
    <g id="btn-2" data-name="btn">
      <g id="btn-body-2" data-name="btn-body">
        <circle class="cls-2" cx="141" cy="162.00024" r="6.5"/>
      </g>
      <path id="btn-control-2" data-name="btn-control" class="cls-10" d="M174,167.00924a6.52106,6.52106,0,0,0-.86667.06438v5.13562a.86667.86667,0,1,0,1.73334,0v-5.13562A6.52106,6.52106,0,0,0,174,167.00924Z" transform="translate(-33 -11.509)"/>
    </g>
    <g id="antenna-container">
      <g id="antenna">
        <path id="lighter" class="cls-11" d="M34.32409,0h.02926a1.00675,1.00675,0,0,1,1.00675,1.00675V100a0,0,0,0,1,0,0h-2a0,0,0,0,1,0,0V.964A.964.964,0,0,1,34.32409,0Z"/>
        <path id="bold" class="cls-12" d="M32.8641,68.52721h2.992a.504.504,0,0,1,.504.504V100a0,0,0,0,1,0,0h-4a0,0,0,0,1,0,0V69.03123a.504.504,0,0,1,.504-.504Z"/>
      </g>
      <path id="base" class="cls-13" d="M30.734,97.50024H38.266a1.234,1.234,0,0,1,1.234,1.234v3.766a0,0,0,0,1,0,0h-10a0,0,0,0,1,0,0v-3.766A1.234,1.234,0,0,1,30.734,97.50024Z"/>
    </g>
  </g>
</svg>
